<svg width="218" height="110" viewBox="0 0 218 110" fill="none" xmlns="http://www.w3.org/2000/svg">
<rect x="0.25" width="217.25" height="110" rx="8" fill="#F4F4F4"/>
<path fill-rule="evenodd" clip-rule="evenodd" d="M44.9651 71.5C54.4721 71.5 62.1797 64.1124 62.1797 55.0005C62.1797 45.8886 54.4721 38.5 44.9651 38.5C35.4563 38.5 27.75 45.8886 27.75 55.0005C27.75 64.1119 35.4563 71.4995 44.9651 71.5ZM50.8666 54.978C51.9498 54.4349 53.9712 54.4975 54.8696 54.8297C55.9318 55.2199 56.5576 56.2088 56.4822 56.6907C56.4088 57.1757 55.6228 57.8069 54.2643 58.3264C52.3888 59.0472 49.6063 59.6278 49.2868 59.691C49.0818 59.6313 48.9921 59.3313 49.1019 59.1294C51.028 58.6475 52.7314 57.9717 53.5274 57.3565C53.9953 56.9913 54.1909 56.4342 53.6977 55.7745C53.2183 55.1232 52.7807 55.3837 52.0503 55.8181L51.9988 55.8486C51.1341 56.3636 50.1187 57.2874 49.1019 58.3835C48.6534 58.5222 47.5604 58.6299 47.1697 58.5548C46.6989 57.9311 45.5839 53.3273 45.9803 50.1142C46.8405 49.4073 48.1226 49.8176 48.2696 49.9594C48.2475 52.5829 48.4274 54.5081 48.7481 56.3856C49.5218 55.7645 50.0215 55.4043 50.8666 54.978ZM56.8565 57.0679C57.6057 56.6371 58.2911 56.7899 58.6801 56.9222C58.7142 57.4492 58.7592 57.8615 58.8244 58.3449C58.459 58.5172 57.6665 58.6324 57.0118 58.4736C56.909 58.0092 56.8259 57.5308 56.8565 57.0679ZM44.173 58.4736C44.0735 58.0092 43.9899 57.5308 44.0173 57.0679C44.7687 56.6371 45.4552 56.7899 45.8394 56.9222C45.875 57.4492 45.9221 57.8615 45.9846 58.3449C45.6179 58.5172 44.8291 58.6324 44.173 58.4736ZM38.028 54.978C39.1126 54.4349 41.1345 54.4975 42.032 54.8297C43.0959 55.2199 43.7178 56.2088 43.6457 56.6907C43.5711 57.1757 42.7825 57.8069 41.4261 58.3264C39.5494 59.0472 36.7686 59.6278 36.4492 59.691C36.2453 59.6313 36.1535 59.3313 36.2659 59.1294C38.1901 58.6475 39.8961 57.9717 40.6877 57.3565C41.1564 56.9913 41.3541 56.4342 40.8617 55.7745C40.3792 55.1227 39.9394 55.3847 39.2081 55.8201L39.1596 55.8486C38.297 56.3636 37.2801 57.2874 36.2655 58.3835C35.8127 58.5222 34.7222 58.6299 34.3326 58.5548C33.8606 57.9311 32.7459 53.3273 33.1417 50.1142C34.003 49.4073 35.2849 49.8176 35.434 49.9594C35.4096 52.5829 35.5877 54.5081 35.9101 56.3856C36.6846 55.7645 37.1854 55.4043 38.028 54.978Z" fill="#0076A8"/>
<path d="M152.736 61.1594C150.87 61.1594 149.886 60.0569 149.886 58.3052V55.5629H152.46C153.312 55.5629 155.645 55.8095 155.645 58.1267C155.645 60.4738 154.07 61.1594 152.736 61.1594ZM149.886 48.8545H151.776C152.966 48.8545 154.901 48.9766 154.901 50.9954C154.901 52.8173 153.311 53.3473 152.052 53.3473H149.885L149.886 48.8545ZM155.748 54.2375V54.1501C156.557 53.8516 158.071 52.7238 158.071 50.6948C158.071 47.6226 155.689 46.5667 152.439 46.5667H146.835V58.471C146.835 61.5575 148.518 63.4333 152.216 63.4333H153.011C155.918 63.4333 158.954 61.8086 158.954 58.15C158.954 55.2811 156.747 54.3902 155.748 54.2375ZM77.0625 61.1594C75.1986 61.1594 74.2116 60.0569 74.2116 58.3052V55.5629H76.7852C77.6377 55.5629 79.9705 55.8095 79.9705 58.1267C79.9705 60.4738 78.3928 61.1594 77.0625 61.1594ZM74.2121 48.8545H76.1031C77.2928 48.8545 79.2287 48.9766 79.2287 50.9954C79.2287 52.8173 77.6366 53.3473 76.3794 53.3473H74.2121V48.8545ZM80.0701 54.2375V54.1501C80.8817 53.8516 82.3946 52.7238 82.3946 50.6948C82.3946 47.6226 80.0142 46.5667 76.7669 46.5667H71.1613V58.471C71.1613 61.5575 72.8453 63.4333 76.5372 63.4333H77.3338C80.2434 63.4333 83.2759 61.8086 83.2759 58.15C83.2759 55.2811 81.0715 54.3902 80.0701 54.2375ZM186.498 52.3187C187.089 52.3187 188.048 52.6923 188.048 53.7948C188.048 55.2897 185.903 56.1076 183.418 56.1076C183.607 53.2763 185.166 52.3187 186.498 52.3187ZM189.956 60.0851C189.219 60.7445 187.882 61.2072 186.724 61.2072C185.542 61.2072 183.78 60.7025 183.494 57.9936C186.717 57.9936 190.753 57.2338 190.753 53.6405C190.753 51.2828 188.914 50.2424 186.699 50.2424C182.52 50.2424 180.436 53.6168 180.436 56.8389C180.436 62.3068 183.519 63.4325 186.429 63.4325C188.585 63.4325 190.048 62.6853 190.917 62.0757L189.956 60.0851ZM120.095 61.2954C118.933 61.2954 117.394 60.4987 117.394 56.8389C117.394 53.4289 118.726 52.4224 120.136 52.4224C121.298 52.4224 122.833 52.9178 122.833 56.8389C122.832 60.0969 121.504 61.2954 120.095 61.2954ZM120.266 50.2428C117.517 50.2428 114.348 51.7434 114.348 56.8393C114.348 62.4371 117.522 63.433 119.963 63.433C122.993 63.433 125.882 61.4289 125.882 56.8393C125.882 51.0562 122.708 50.2428 120.266 50.2428ZM165.209 61.1341C163.936 61.1341 163.877 60.003 163.877 58.607V46.8117H160.827V59.1896C160.827 62.2917 161.455 63.4325 164.471 63.4325C165.413 63.4325 166.707 63.1933 167.557 62.7139L166.85 60.691C166.453 60.9773 165.834 61.1341 165.209 61.1341ZM111.482 61.1594C109.74 61.1594 109.702 60.0026 109.702 58.607V52.899H113.162V50.585H109.702V46.8117H106.653V59.1896C106.653 61.9213 107.361 63.4325 110.637 63.4325C111.949 63.4325 113.328 63.0189 113.885 62.5269L113.12 60.6359C112.72 60.9209 112.108 61.1594 111.482 61.1594ZM102.996 61.1594C101.257 61.1594 101.216 60.0026 101.216 58.607V52.899H104.677V50.585H101.216V46.8117H98.1684V59.1896C98.1684 61.9213 98.8781 63.4325 102.153 63.4325C103.464 63.4325 104.843 63.0189 105.4 62.5269L104.635 60.6359C104.237 60.9209 103.624 61.1594 102.996 61.1594ZM134.095 50.233C131.92 50.233 130.798 51.2763 130.188 52.0296H130.056C130.034 51.5621 129.964 51.0199 129.889 50.5846H127.251C127.251 50.5846 127.501 52.0639 127.501 52.912V63.0512H130.551V54.9055C130.551 53.9569 131.443 52.5115 133.183 52.5115C134.923 52.5115 135.076 54.0406 135.076 55.0137V63.0512H138.122V54.6135C138.123 52.4069 137.285 50.233 134.095 50.233ZM178.685 50.585H175.635V58.8809C175.635 59.8307 174.744 61.1234 173.004 61.1234C171.265 61.1234 171.113 59.5955 171.113 58.6245V50.5846H168.064V58.8622C168.064 61.0659 168.818 63.4325 172.093 63.4325C175.108 63.4325 175.999 61.6085 175.999 61.6085H176.132C176.157 62.0752 176.225 62.6175 176.302 63.0512H178.938C178.938 63.0512 178.685 61.573 178.685 60.7233V50.585ZM95.7005 50.585H92.6536V58.8809C92.6536 59.8307 91.7645 61.1234 90.0208 61.1234C88.2803 61.1234 88.133 59.5955 88.133 58.6245V50.5846H85.0806V58.8622C85.0806 61.0659 85.8351 63.4325 89.1118 63.4325C92.1266 63.4325 93.0195 61.6085 93.0195 61.6085H93.1518C93.1756 62.0752 93.2443 62.6175 93.3174 63.0512H95.9541C95.9541 63.0512 95.7 61.573 95.7 60.7233L95.7005 50.585Z" fill="#0076A8"/>
</svg>
