<svg width="22" height="23" viewBox="0 0 22 23" fill="none" xmlns="http://www.w3.org/2000/svg">
<path d="M20.0332 9.87513C20.0332 11.2112 19.4878 12.6306 18.6185 14.0349C17.7523 15.4341 16.5893 16.7786 15.413 17.9549C14.2385 19.1294 13.0621 20.125 12.1783 20.8275C11.7369 21.1784 11.3694 21.4554 11.1131 21.6441C11.0725 21.674 11.0347 21.7016 10.9999 21.727C10.965 21.7016 10.9273 21.674 10.8867 21.6441C10.6303 21.4554 10.2629 21.1784 9.82143 20.8275C8.9377 20.125 7.76128 19.1294 6.58677 17.9549C5.4105 16.7786 4.24746 15.4341 3.38127 14.0349C2.51196 12.6306 1.96655 11.2112 1.96655 9.87513C1.96655 4.88616 6.01091 0.841797 10.9999 0.841797C15.9889 0.841797 20.0332 4.88616 20.0332 9.87513Z" stroke="#525665"/>
<circle cx="10.9999" cy="9.58183" r="2.58" stroke="#525665"/>
</svg>
