<svg width="218" height="110" viewBox="0 0 218 110" fill="none" xmlns="http://www.w3.org/2000/svg">
<rect x="0.5" width="217.25" height="110" rx="8" fill="#F4F4F4"/>
<path fill-rule="evenodd" clip-rule="evenodd" d="M62.1505 61.5246C62.9033 59.3972 63.2839 56.647 63.284 53.2763H47.25V59.4286H53.9151C53.6739 60.966 53.154 62.1241 52.3612 62.9087C51.1645 64.0984 49.5334 64.6955 47.483 64.6955C45.1762 64.6955 43.3273 63.966 41.9444 62.5059C40.072 60.5398 39.1399 58.0925 39.1399 55.1487C39.1399 53.7354 39.3952 52.3677 39.9163 51.0398C41.291 47.4344 43.7383 45.6323 47.2418 45.6323C48.9584 45.6323 50.442 46.137 51.6856 47.1393C52.5486 47.8536 53.3085 48.918 53.9619 50.3396L61.606 47.2166C60.3156 44.6136 58.7617 42.6487 56.9444 41.3126C54.3964 39.4403 51.2886 38.5 47.6224 38.5C42.1306 38.5 37.8577 40.2482 34.7968 43.7518C32.1025 46.8279 30.75 50.6265 30.75 55.1475C30.75 59.226 31.8999 62.7377 34.2067 65.6815C37.2605 69.5574 41.6329 71.5 47.3355 71.5C50.839 71.5 53.8765 70.6604 56.4327 68.9906C59.0896 67.2494 60.9924 64.7564 62.1505 61.5246ZM81.3062 70.5211H99.065V63.8091H89.3694V39.4321H81.3062V70.5211ZM132.197 70.5211L145.442 39.4321H136.68L129.128 58.3326L121.647 39.4321H112.861L125.921 70.5211H132.197ZM177.369 70.5211H187.391L177.674 57.7963C179.506 57.3841 180.951 56.6534 182.001 55.6054C183.639 53.9672 184.455 51.7681 184.455 49.0105C184.455 46.6101 183.739 44.5199 182.318 42.7412C180.556 40.5351 177.844 39.4321 174.169 39.4321H161.615V70.5211H169.679V58.6358L177.369 70.5211ZM174.853 46.6557C175.661 47.4169 176.065 48.3501 176.065 49.4602C176.065 50.5714 175.661 51.5187 174.853 52.2963C174.115 53.0105 172.888 53.3677 171.187 53.3677H169.68V45.5843H171.187C172.872 45.5843 174.099 45.9415 174.853 46.6557ZM83.98 43.2634C83.987 43.1498 84.0339 43.0093 84.1205 42.9227C84.2236 42.8056 84.3395 42.7693 84.4859 42.7658C84.6393 42.7611 84.7868 42.8138 84.8875 42.9227C84.9906 43.0351 85.0081 43.1428 85.021 43.2833C85.0222 43.2927 85.028 43.3934 85.028 43.4039C85.0456 43.5409 85.0585 43.6182 85.1018 43.7646C85.1967 44.0901 85.5433 44.432 85.8934 44.4238C86.1077 44.4227 87.7529 44.4156 87.754 44.4156C88.0831 44.4156 88.2728 44.6065 88.2728 44.9402C88.2728 45.2423 88.0784 45.4227 87.754 45.4227L84.5386 45.4192C84.0936 45.4192 84.0456 45.0995 84.0456 44.9227C84.0456 44.7634 84.1147 44.5292 84.4906 44.4426C84.1451 44.1065 84.0397 43.7716 83.987 43.5175C83.9692 43.4281 83.973 43.3699 83.9782 43.2911L83.98 43.2634ZM84.2097 57.8935C84.2951 57.7963 84.4134 57.7495 84.5434 57.7495H84.5855L85.7507 57.8057L86.5129 57.8197L87.2834 57.7975L87.4298 57.787L87.5855 57.7764L87.7588 57.7717C87.9017 57.7717 88.0188 57.8209 88.1265 57.9286C88.2132 58.027 88.2624 58.1581 88.26 58.2975C88.253 58.6066 88.1066 58.6874 87.8572 58.7272C88.0703 58.9755 88.2577 59.3584 88.2577 59.7237C88.2577 60.212 88.1254 60.4216 87.9731 60.6464C87.7319 60.9076 87.4942 61.0738 87.15 61.1242C86.6276 61.2037 86.2574 61.199 85.8818 61.1943C85.7926 61.1932 85.7032 61.1921 85.6113 61.1921C85.3115 61.1921 84.9591 61.1863 84.4907 61.109C84.2108 61.0621 84.0504 60.8771 84.0504 60.6031C84.0504 60.4638 84.0973 60.3326 84.1909 60.2261C84.2905 60.1254 84.4087 60.0773 84.5504 60.0773C84.5504 60.0773 84.9579 60.1218 84.9567 60.1218L85.5703 60.171L86.493 60.1933C87.0891 60.1839 87.253 59.883 87.2635 59.6757C87.2788 59.349 87.0762 59.0352 86.8268 58.794C86.657 58.794 86.3186 58.8139 86.3186 58.8139L85.6242 58.8221C85.1453 58.8221 84.945 58.8174 84.5305 58.7706C84.2354 58.7343 84.0668 58.5446 84.0668 58.2542C84.0668 58.1125 84.1136 58.0001 84.2097 57.8935ZM82.141 56.8851C82.141 57.2083 82.3307 57.3957 82.6492 57.3863L83.7171 57.3688L83.8845 57.3664C83.8822 57.3664 85.1785 57.3465 85.1785 57.3465L86.4536 57.3524L87.7511 57.3582C88.0801 57.3488 88.2686 57.1545 88.2686 56.8266C88.2686 56.5292 88.0942 56.35 87.7757 56.3243L86.9361 56.3137H85.182L84.0473 56.3325L82.6492 56.3453C82.3307 56.3535 82.141 56.5561 82.141 56.8851ZM82.6492 55.8514C82.3307 55.8607 82.141 55.6722 82.141 55.3502C82.141 55.027 82.3307 54.8279 82.6504 54.8162C82.6504 54.8162 83.8927 54.7963 83.8904 54.7963L84.1105 54.794L85.182 54.7764L86.9361 54.7776L87.7757 54.7881C88.0883 54.8151 88.2675 54.9977 88.2675 55.2905C88.2675 55.6183 88.0789 55.8127 87.7499 55.8221L86.4525 55.8162L85.1773 55.8197L83.7487 55.8326L82.6492 55.8514ZM84.8819 61.6664C84.7824 61.7788 84.7309 61.917 84.7309 62.0774C84.7309 62.4624 84.7176 62.8359 84.7051 63.1867V63.1867C84.6723 64.1055 84.6451 64.8688 84.8773 65.2764C85.0119 65.4989 85.1958 65.5305 85.3269 65.52C85.4581 65.5083 85.6115 65.4556 85.7239 65.3537C85.8515 65.212 85.9241 65.0739 85.9241 64.9181L85.8679 64.6851C85.7493 64.4131 85.755 63.9251 85.7604 63.4592V63.4592C85.7634 63.2031 85.7663 62.9538 85.7485 62.7507C85.7714 62.7488 85.7948 62.7464 85.8185 62.744C86.0998 62.7158 86.4397 62.6817 86.93 63.28C87.1735 63.5774 87.2578 64.0387 87.2379 64.4615C87.1829 65.609 86.3222 65.9661 85.9218 66.0598C85.1513 66.2413 84.6068 66.212 83.8691 65.6992C83.4815 65.4298 83.122 64.8514 83.1747 64.1254C83.2106 63.6365 83.4111 63.3882 83.6004 63.1538L83.6005 63.1537C83.6891 63.044 83.7753 62.9373 83.841 62.8104C83.9182 62.6757 83.9569 62.5704 83.9569 62.4837C83.9569 62.335 83.8562 62.2062 83.7449 62.1008C83.6559 62.0036 83.5271 61.9544 83.3819 61.9673C83.0986 61.9919 82.7133 62.2999 82.5154 62.6957C82.3129 63.1008 82.1196 63.5259 82.1068 64.1547C82.0974 64.5727 82.2754 65.3818 82.7086 65.9778C83.0798 66.4872 83.4616 66.787 84.1454 67.0387C84.7637 67.2647 85.3983 67.2764 86.0271 67.1605C86.8644 67.0071 87.4182 66.5141 87.7531 66.0949C88.081 65.6851 88.2824 65.054 88.2824 64.369C88.2824 63.6266 88.0506 62.9427 87.5892 62.4357C86.9944 61.7811 86.4124 61.6453 85.6571 61.6675C85.5588 61.5305 85.4264 61.4521 85.2461 61.4673C85.1114 61.4814 84.9862 61.5493 84.8819 61.6664ZM85.0027 47.2529C84.9816 47.3923 84.9886 47.5398 85.0085 47.6663C85.0296 47.7998 85.135 48.0246 85.2966 48.1686C85.443 48.3021 85.6046 48.4157 85.9301 48.4836C85.8218 48.2475 85.7489 48.0598 85.6714 47.8598C85.6416 47.783 85.6111 47.7044 85.5776 47.6206C85.5414 47.5295 85.5052 47.4353 85.4693 47.342L85.4693 47.3419L85.4692 47.3417L85.4692 47.3417C85.3858 47.1245 85.3044 46.9127 85.2299 46.7588C85.1292 46.8782 85.0226 47.1124 85.0027 47.2529ZM86.7146 46.1827C86.7146 46.048 86.7626 45.9333 86.8493 45.8478C86.9406 45.7447 87.053 45.692 87.183 45.6909C87.5074 45.6909 87.8036 45.9461 88.0214 46.4473C88.1912 46.829 88.3025 47.1639 88.2826 47.6042C88.2626 48.0656 88.1362 48.4672 87.847 48.8841C87.5823 49.2646 87.0448 49.5059 86.4559 49.5059C85.813 49.5059 85.2029 49.322 84.8212 49.0094C84.4395 48.6956 84.087 48.0796 84.0753 47.5304C84.0659 47.0984 84.1502 46.7365 84.2978 46.4614C84.4793 46.089 84.8587 45.7494 85.2685 45.7283C85.4957 45.7166 85.71 45.808 85.8633 46.0691C85.9461 46.2081 86.1179 46.6481 86.3134 47.1492L86.3135 47.1493L86.3247 47.178C86.4873 47.5944 86.6367 47.9999 86.7411 48.2832L86.7411 48.2832L86.806 48.459C86.9594 48.3934 87.0893 48.3185 87.1526 48.192C87.1526 48.192 87.5004 47.8501 87.2931 47.0644C87.2111 46.7588 87.0683 46.6241 87.0062 46.5796C86.8317 46.4625 86.7146 46.3326 86.7146 46.1827ZM84.1944 49.4729C84.0984 49.5807 84.0504 49.7024 84.0504 49.843C84.0504 50.0408 84.164 50.206 84.3701 50.309C84.3818 50.3149 85.164 50.6252 85.164 50.6252C85.4879 50.7536 85.7964 50.9074 86.0668 51.0423C86.2303 51.1239 86.38 51.1985 86.5106 51.2563C86.0001 51.4507 84.3771 52.0666 84.3771 52.0666C84.1722 52.1509 84.061 52.316 84.061 52.5303C84.061 52.6697 84.109 52.7938 84.2038 52.9003C84.3022 53.0104 84.4216 53.0771 84.5703 53.0643C84.719 53.0514 84.9462 52.9519 84.9462 52.9519C84.9427 52.953 86.4111 52.3629 86.4111 52.3629L87.8478 51.7938C88.1862 51.6533 88.2577 51.4226 88.2577 51.254C88.2577 50.9764 88.0949 50.8031 87.8291 50.7727C87.8127 50.7657 86.1113 49.9284 86.1113 49.9284C85.1617 49.4835 84.6043 49.3102 84.5586 49.3102C84.4169 49.309 84.2893 49.3652 84.1944 49.4729ZM82.5025 53.7939C82.5025 53.6276 82.5552 53.4953 82.6641 53.3829C82.7707 53.2611 82.9089 53.1955 83.0646 53.1909C83.2238 53.1862 83.369 53.2459 83.4744 53.3595C83.581 53.4777 83.6337 53.6089 83.6337 53.7611C83.6337 53.9157 83.5786 54.0609 83.4744 54.1791C83.3702 54.2998 83.2238 54.3677 83.0646 54.3724C82.9089 54.377 82.7707 54.3185 82.67 54.2096C82.5587 54.1019 82.5025 53.9625 82.5025 53.7939ZM84.5804 53.3021C84.3837 53.308 84.2678 53.3958 84.2045 53.4696C84.1132 53.5633 84.0628 53.6886 84.0628 53.8338C84.0628 53.9836 84.1132 54.1089 84.2116 54.2061C84.3052 54.2951 84.4317 54.3396 84.5804 54.3361C84.5804 54.3361 84.982 54.3525 85.5757 54.3443C86.2631 54.3338 87.7549 54.3021 87.7549 54.3021C87.8989 54.2975 88.0254 54.2436 88.1226 54.1441C88.2186 54.0316 88.2642 53.9087 88.2642 53.7705C88.2642 53.6265 88.2197 53.5035 88.1307 53.4064C88.016 53.308 87.8907 53.2658 87.7549 53.2694C87.7549 53.2694 86.2315 53.315 85.5265 53.322C84.9071 53.3279 84.5804 53.3021 84.5804 53.3021Z" fill="#211E1F"/>
</svg>
