<svg width="218" height="110" viewBox="0 0 218 110" fill="none" xmlns="http://www.w3.org/2000/svg">
<rect x="0.75" width="217.25" height="110" rx="8" fill="#F4F4F4"/>
<path fill-rule="evenodd" clip-rule="evenodd" d="M125.871 47.1037C124.091 49.132 122.052 51.2326 119.812 53.3428L119.813 53.3418C117.575 55.4503 115.305 57.4908 113.081 59.4C110.857 61.3091 108.694 63.0675 106.651 64.6296C104.699 66.1186 103.047 67.3411 101.744 68.258C101.229 70.2849 100.993 72.368 101.042 74.4541L101.07 75.1692C101.086 75.4655 101.036 75.7618 100.923 76.0379C100.83 76.2208 100.692 76.3792 100.521 76.4996C100.35 76.6201 100.152 76.699 99.9425 76.7296C99.7609 76.7846 99.5721 76.8144 99.3817 76.8182C99.3486 76.8206 99.3158 76.8206 99.2841 76.8206C99.0612 76.8355 98.8378 76.7981 98.6331 76.7115C98.4284 76.6249 98.2486 76.4918 98.109 76.3235C97.8761 76.0276 97.7438 75.6695 97.7303 75.2983C97.7609 72.4851 98.2374 69.6929 99.1432 67.0185C99.8934 64.6909 100.793 62.4105 101.837 60.1905C101.807 60.2171 101.778 60.2443 101.749 60.2714L101.749 60.2718L101.748 60.2727C101.719 60.2999 101.69 60.327 101.66 60.3535C99.4965 62.3394 97.3953 64.1674 95.4156 65.7869C93.5166 67.3411 91.9089 68.6153 90.6376 69.5729C90.1938 71.6149 90.0301 73.7042 90.1508 75.7873L90.2054 76.4943C90.2311 76.79 90.1911 77.0877 90.0881 77.3673C90.001 77.5531 89.8687 77.7157 89.7022 77.8414C89.5358 77.967 89.3403 78.052 89.1324 78.089C88.9531 78.151 88.7654 78.1874 88.5751 78.1969C88.5135 78.201 88.4585 78.2031 88.406 78.2031C88.195 78.2156 87.9838 78.1804 87.7892 78.1004C87.5947 78.0204 87.4222 77.8978 87.2855 77.7422C87.0426 77.4543 86.8983 77.1009 86.8723 76.7306C86.8111 74.9163 86.9588 73.101 87.3126 71.318L87.151 71.4026C86.798 71.5873 86.3432 71.8349 85.799 72.1374C85.2428 72.4478 84.6277 72.7585 83.9715 73.0641C83.3247 73.363 82.6776 73.6387 82.0478 73.8832C81.481 74.1139 80.8853 74.2718 80.2759 74.3529C79.7757 74.4325 79.2622 74.3552 78.8109 74.1325C78.4736 73.952 78.174 73.7128 77.9271 73.4272C77.7044 73.1735 77.5319 72.8827 77.4181 72.569C77.3358 72.3508 77.2768 72.125 77.2419 71.8953C77.1967 71.5337 77.2055 71.1678 77.268 70.8086C77.1916 70.8748 77.1123 70.9434 77.0292 71.0148C76.3835 71.5696 75.6437 72.1415 74.8335 72.7127C74.0297 73.2798 73.1939 73.8035 72.33 74.2815C71.5486 74.7345 70.6805 75.0312 69.7776 75.1539C69.7099 75.1612 69.6418 75.165 69.5736 75.1651C69.3258 75.1602 69.0816 75.1061 68.8564 75.0062C68.6312 74.9063 68.4297 74.7627 68.2646 74.5845C67.8704 74.2172 67.617 73.7319 67.546 73.2078C67.5019 72.6032 67.6278 71.9983 67.9102 71.4569C68.2054 70.8332 68.5604 70.2375 68.9706 69.6775C69.3785 69.1172 69.7888 68.5844 70.1911 68.0943C70.4576 67.7557 70.7482 67.4354 71.0609 67.1357C71.0742 67.1129 71.0892 67.0911 71.1059 67.0705C71.1486 67.0191 71.2014 66.9765 71.2613 66.9451C71.3213 66.9138 71.3871 66.8943 71.455 66.8878L71.6741 66.863C71.8158 66.8425 71.9603 66.85 72.0988 66.8851C72.2374 66.9201 72.3671 66.9819 72.4801 67.0668C72.5496 67.1219 72.607 67.1899 72.6489 67.2667C72.6908 67.3435 72.7164 67.4275 72.7242 67.514C72.7219 67.877 72.5782 68.2259 72.3216 68.4916C72.0916 68.7925 71.8383 69.1331 71.5681 69.5036C71.3037 69.8676 71.0698 70.2514 70.8689 70.6514C70.6979 70.9751 70.6288 71.34 70.6702 71.701C70.6939 71.9473 70.8074 72.1774 70.9904 72.3507C71.0451 72.4172 71.116 72.4697 71.1968 72.5034C71.2776 72.5371 71.3659 72.551 71.4536 72.5439C72.0828 72.4736 72.8454 72.1211 73.7201 71.4956C74.6702 70.8141 75.5716 70.0718 76.4183 69.2737C77.4328 68.3242 78.4843 67.2688 79.5464 66.136C79.6197 66.0579 79.7198 66.0078 79.8282 65.995C80.127 65.9526 80.4321 65.9841 80.7148 66.0864C80.8926 66.1656 81.0435 66.2917 81.15 66.4501C81.2566 66.6085 81.3146 66.7927 81.3172 66.9815C81.3319 67.2188 81.2789 67.4554 81.164 67.6658C81.1583 67.6783 81.1518 67.6904 81.1446 67.7021C80.9757 68.0624 80.8381 68.4355 80.7332 68.8176C80.5497 69.3693 80.4882 69.9519 80.5528 70.5278C80.5644 70.6256 80.5905 70.7662 80.63 70.9455C80.6695 71.1142 80.7356 71.2761 80.8258 71.4256C80.9165 71.5798 81.0409 71.713 81.1904 71.8162C81.3595 71.9032 81.5552 71.9292 81.7424 71.8895C82.1679 71.8343 82.5841 71.7259 82.9806 71.5669C83.4646 71.3825 83.9517 71.1767 84.4181 70.9655C84.8845 70.7543 85.3312 70.5393 85.7451 70.3271C86.1403 70.1257 86.4707 69.9607 86.7039 69.8541L87.7582 69.3026C87.8336 69.0054 87.9101 68.7083 87.995 68.4067C88.9063 65.2249 90.0844 62.1197 91.5176 59.1219C93.0359 55.925 94.7949 52.8394 96.7803 49.8899C98.6669 47.0524 100.771 44.355 103.075 41.8201C105.041 39.6341 107.264 37.6755 109.699 35.9836C111.951 34.4555 114.103 33.6113 116.095 33.4707C117.185 33.3926 118.027 33.575 118.6 34.0096C119.191 34.4616 119.533 35.3843 119.644 36.8309V36.9263C120.418 36.3368 121.19 35.7942 121.96 35.3092C124.264 33.8575 126.445 33.0826 128.442 33.0055C129.536 32.9624 130.37 33.1733 130.926 33.6273C131.497 34.0939 131.806 35.0185 131.869 36.4529V36.4794C131.924 37.8306 131.376 39.4556 130.239 41.31C128.952 43.3546 127.491 45.2925 125.871 47.1037ZM94.8485 64.3813C96.6757 62.8091 98.605 61.0402 100.584 59.1236L100.583 59.1246C101.846 57.9 103.109 56.6256 104.362 55.3192C105.644 53.0736 107.048 50.8944 108.566 48.7904C110.552 46.0158 112.749 43.3878 115.14 40.9283C115.363 40.7018 115.587 40.4801 115.812 40.2604C116.272 39.3273 116.505 38.3052 116.493 37.272C116.469 36.9037 116.323 36.5526 116.076 36.2706C115.954 36.1547 115.807 36.0663 115.645 36.0117C115.483 35.9571 115.311 35.9377 115.141 35.9548C115.07 35.9548 114.996 35.9575 114.92 35.9629C113.499 36.0631 111.984 36.6207 110.417 37.6198C108.651 38.7767 107.032 40.1283 105.591 41.6472C103.866 43.4494 102.283 45.3735 100.856 47.4035C97.7346 51.8114 95.1538 56.5533 93.1654 61.5343C92.4001 63.4444 91.7438 65.3934 91.1995 67.3727C92.2576 66.5611 93.4849 65.5549 94.8485 64.3813ZM102.38 66.084C103.47 65.3047 104.732 64.3396 106.132 63.2138C108.017 61.6959 110.007 59.9902 112.046 58.1442C114.08 56.3033 116.135 54.3293 118.156 52.2765C120.16 50.2424 121.981 48.2178 123.57 46.2588C124.986 44.5448 126.26 42.7262 127.381 40.8197C128.304 39.206 128.751 37.8602 128.708 36.819C128.697 36.4503 128.563 36.0947 128.325 35.8057C128.195 35.6767 128.035 35.5782 127.859 35.5179C127.683 35.4575 127.495 35.4369 127.309 35.4576C127.289 35.4576 127.268 35.4582 127.246 35.4588C127.225 35.4594 127.203 35.46 127.181 35.46C125.758 35.5133 124.226 36.0217 122.623 36.9701C121.423 37.692 120.288 38.5107 119.232 39.4175C118.954 40.2117 118.601 40.9798 118.179 41.7124C116.964 43.7973 115.572 45.7814 114.016 47.6443C112.302 49.7361 110.337 51.8999 108.177 54.0753C107.873 54.3819 107.567 54.6855 107.261 54.9889L107.076 55.1725C106.152 56.8677 105.303 58.5887 104.549 60.3135C103.717 62.1975 102.993 64.1239 102.38 66.084Z" fill="#286961"/>
<path fill-rule="evenodd" clip-rule="evenodd" d="M174.75 70.7476C174.841 70.7352 174.936 70.722 174.864 70.5669L174.869 70.5658C174.947 70.6951 174.964 70.6898 174.978 70.6856C174.99 70.6818 175 70.6789 175.05 70.7822C174.924 70.7449 174.827 70.8928 174.741 71.0239C174.715 71.0638 174.69 71.1022 174.665 71.1333L174.811 71.2732C174.792 71.4602 174.692 71.3977 174.603 71.342C174.543 71.3048 174.488 71.2707 174.466 71.3156C174.5 71.243 174.61 71.2862 174.634 71.3468L174.569 71.134C174.409 71.0781 174.307 71.2156 174.214 71.3394C174.198 71.3608 174.183 71.3817 174.167 71.4012C174.228 71.4277 174.205 71.4643 174.176 71.5112C174.143 71.5635 174.102 71.6286 174.16 71.7068L174.247 71.6654C174.291 71.7239 174.251 71.7884 174.213 71.8502C174.203 71.8663 174.193 71.8822 174.185 71.8977C174.032 71.8386 173.836 71.8608 173.658 71.8809C173.468 71.9023 173.301 71.9213 173.231 71.8362C173.299 71.8855 173.4 71.8186 173.44 71.7445L173.288 71.6698C173.332 71.6599 173.378 71.6853 173.428 71.7123C173.5 71.752 173.579 71.7954 173.668 71.7347C173.649 71.6839 173.648 71.6232 173.647 71.5577C173.646 71.4423 173.644 71.3124 173.544 71.1965C173.363 71.1045 173.317 71.2168 173.264 71.348C173.212 71.4727 173.154 71.6145 172.967 71.6145C172.96 71.6289 172.959 71.616 172.959 71.5923C172.957 71.5309 172.952 71.3968 172.818 71.4786C172.701 71.5889 172.613 71.7251 172.562 71.8754C172.512 72.0258 172.5 72.1858 172.528 72.3415L172.532 72.3368C172.621 72.2266 172.793 72.0136 172.865 72.2329C172.839 72.2644 172.807 72.2943 172.774 72.3245C172.694 72.3983 172.612 72.4739 172.624 72.5792C172.543 72.4545 172.594 72.4287 172.637 72.4066C172.678 72.3857 172.712 72.3681 172.624 72.2736C172.568 72.2883 172.546 72.3463 172.527 72.3954C172.524 72.4026 172.521 72.4097 172.519 72.4163C172.516 72.4231 172.513 72.4294 172.51 72.4352C172.53 72.3534 172.474 72.3024 172.427 72.2595C172.406 72.2406 172.387 72.2233 172.377 72.2057C172.252 72.226 172.149 72.2109 172.041 72.1951C171.944 72.1808 171.843 72.166 171.72 72.1765C171.726 72.1861 171.73 72.1928 171.731 72.1951C171.732 72.1983 171.728 72.1934 171.715 72.1765H171.719C171.684 72.1214 171.66 72.0603 171.649 71.9965C171.579 72.0935 171.532 72.2034 171.508 72.3193C171.485 72.4351 171.488 72.5543 171.515 72.6692C171.45 72.6859 171.407 72.67 171.37 72.6561C171.326 72.6392 171.289 72.6255 171.229 72.677C171.342 72.7696 171.34 72.7695 171.309 72.7681C171.272 72.7665 171.196 72.7631 171.211 72.9008C171.14 72.9327 171.129 72.8859 171.118 72.8328C171.11 72.797 171.101 72.7585 171.073 72.7392C171.044 72.7991 171.031 72.865 171.034 72.931C170.978 72.8457 170.988 72.7212 170.997 72.5919C171.008 72.4517 171.019 72.3058 170.947 72.1982C170.894 72.1208 170.779 72.0376 170.697 71.9791C170.64 71.9381 170.6 71.9091 170.61 71.9028C170.487 71.9804 170.576 72.2085 170.678 72.4721C170.776 72.7232 170.887 73.0066 170.838 73.2227C170.818 73.3135 170.766 73.242 170.715 73.1726C170.683 73.1292 170.652 73.0867 170.629 73.0849C170.51 72.9695 170.461 73.0604 170.412 73.149C170.375 73.2169 170.339 73.2834 170.273 73.2547L170.346 73.1015C170.311 73.0451 170.132 73.162 170.12 73.2547C170.112 73.2267 170.11 73.1661 170.109 73.095C170.105 72.9565 170.101 72.7779 170.046 72.7212C169.796 72.7259 169.672 73.2292 169.742 73.473C169.742 73.473 169.916 73.0526 169.963 73.1545C170.069 73.3811 170.041 73.4272 169.911 73.6399L169.907 73.6472C169.86 73.7199 169.57 73.725 169.554 73.6418C169.552 73.6276 169.569 73.6114 169.591 73.5919C169.631 73.5548 169.684 73.5061 169.634 73.438C169.546 73.4623 169.536 73.4484 169.512 73.4161C169.497 73.3964 169.478 73.37 169.433 73.3413C169.569 72.8913 169.669 72.4321 169.733 71.9676C169.733 71.9676 169.645 72.1463 169.587 72.1425C169.552 72.1402 169.516 72.0301 169.516 72.0301C169.417 72.1374 169.407 72.4397 169.398 72.7254C169.389 73.0014 169.38 73.2619 169.292 73.3158C169.104 73.4313 169.092 72.84 169.104 72.7477C169.088 72.7514 169.074 72.758 169.061 72.767C169.072 72.8274 169.075 72.8887 169.07 72.9497C169.059 73.0812 169.013 73.2078 168.938 73.3175C168.862 73.4272 168.758 73.5165 168.636 73.5769C168.615 73.5876 168.593 73.5964 168.57 73.6034C167.223 74.0147 165.888 74.3576 164.602 74.6222C163.471 74.8568 162.279 75.063 161.061 75.2351C160.328 75.3432 159.588 75.3999 158.847 75.4049C158.493 75.4068 158.139 75.3901 157.786 75.355C157.778 75.354 157.77 75.353 157.762 75.3517L157.755 75.3506C157.752 75.3501 157.749 75.3495 157.746 75.3489C155.964 74.9923 155.807 73.9841 155.872 73.4153C155.973 72.7875 156.235 72.1938 156.634 71.6878C157.057 71.1025 157.533 70.5542 158.056 70.0493C158.528 69.5936 158.988 69.1868 159.428 68.838L159.005 68.8414C158.037 68.8499 157.027 68.8357 156.002 68.7997C155.992 68.7994 155.982 68.7986 155.971 68.7973L154.733 68.6665C154.714 68.6645 154.696 68.6621 154.679 68.6596C154.664 68.6575 154.649 68.6555 154.633 68.6536C151.588 70.7513 146.682 72.6808 144.324 73.4211C144.314 73.4231 144.304 73.4244 144.294 73.4251C144.131 73.4808 143.962 73.5352 143.776 73.5827C143.214 73.7346 142.634 73.8173 142.05 73.8289H142.044C141.994 73.8289 141.949 73.8225 141.9 73.8204C141.878 73.8214 141.856 73.8225 141.833 73.8237C141.783 73.8263 141.734 73.8289 141.685 73.8289H141.678C141.199 73.8489 140.726 73.721 140.327 73.4639C140.03 73.2576 139.775 73.0002 139.575 72.7045C139.396 72.4409 139.267 72.1484 139.195 71.841C139.142 71.6255 139.112 71.4055 139.106 71.1842C139.075 70.6575 139.117 70.1291 139.232 69.6133C138.907 69.6432 138.573 69.6676 138.219 69.6812C136.802 69.7356 134.967 69.1949 133.976 68.8262L132.214 70.1461C132.203 70.1587 132.191 70.1707 132.179 70.1821L131.993 70.3207L131.97 70.3381L131.969 70.3384L131.968 70.3397C131.848 70.4295 131.726 70.52 131.598 70.6107C130.794 71.177 129.959 71.7002 129.096 72.1778C128.318 72.6287 127.454 72.9241 126.555 73.0465C126.488 73.0541 126.421 73.0578 126.354 73.0577C126.11 73.053 125.87 72.9997 125.648 72.9013C125.426 72.8028 125.228 72.6613 125.066 72.4855C124.676 72.1224 124.425 71.6428 124.355 71.1248C124.312 70.5252 124.437 69.9255 124.717 69.3885C125.011 68.7662 125.364 68.1719 125.774 67.6135C125.852 67.5062 125.962 67.3612 126.091 67.1938C123.173 69.3379 120.023 71.1591 118.015 71.8586C118.013 71.8593 117.961 71.8665 117.881 71.8773C117.62 71.9598 117.361 72.025 117.083 72.093C116.986 72.1167 116.887 72.1412 116.786 72.167C116.197 72.3261 115.589 72.4128 114.978 72.4251C114.47 72.4471 113.967 72.3117 113.544 72.0386C113.231 71.8213 112.963 71.5502 112.752 71.2389C112.563 70.9609 112.428 70.6527 112.352 70.3288C112.296 70.1021 112.265 69.8706 112.258 69.6378C112.256 69.2887 112.308 68.9414 112.411 68.6068C112.248 68.693 112.088 68.7756 111.933 68.8523C111.537 69.0604 111.127 69.2419 110.705 69.3956C110.472 69.4938 110.179 69.6031 109.836 69.7193C109.535 69.8211 109.212 69.9447 108.878 70.087C108.82 70.1114 108.758 70.124 108.694 70.124C108.572 70.1227 108.453 70.0891 108.349 70.027C108.245 69.9648 108.161 69.8765 108.106 69.7716C108.012 69.6308 107.961 69.4673 107.959 69.2999C107.945 69.1676 107.973 69.0345 108.037 68.9172C108.102 68.7999 108.201 68.7036 108.322 68.6404C108.337 68.6331 108.352 68.6267 108.367 68.6214C108.625 68.5287 108.893 68.4292 109.236 68.2981C109.506 68.1949 109.751 68.0893 109.966 67.9874C110.731 67.6422 111.473 67.2506 112.187 66.8151C112.762 66.5042 113.298 66.1309 113.785 65.7027C114.039 65.4792 114.245 65.2082 114.388 64.906C114.487 64.6359 114.617 64.3774 114.775 64.1355C114.864 64.0001 114.987 63.8885 115.132 63.8113C115.277 63.7341 115.441 63.6937 115.607 63.694C115.943 63.6899 116.274 63.7804 116.558 63.9545C116.728 64.0618 116.866 64.2107 116.958 64.3861C117.049 64.5614 117.09 64.757 117.078 64.9529C117.063 65.1897 116.982 65.4182 116.842 65.6137L116.433 66.2032C116.243 66.4818 116.073 66.7731 115.926 67.0749C115.758 67.4193 115.614 67.774 115.495 68.1368C115.382 68.4636 115.322 68.8053 115.317 69.1498C115.315 69.2855 115.342 69.4201 115.396 69.5452C115.451 69.6703 115.532 69.7831 115.634 69.8765C115.943 70.1119 116.334 70.2232 116.726 70.1869C117.214 70.1298 117.697 70.042 118.173 69.924C119.679 69.4564 121.596 68.4852 123.904 67.0138C124.422 66.6832 125.007 66.3208 125.576 65.9679L125.698 65.8921C126.876 65.1617 128.088 64.4105 128.783 63.9025C128.831 63.8561 128.889 63.821 128.953 63.8001C129.018 63.7791 129.086 63.7728 129.153 63.7816C129.478 63.716 129.814 63.7277 130.134 63.8156C130.462 63.9413 130.739 64.1675 130.922 64.4594C131.105 64.7514 131.183 65.093 131.146 65.432C131.105 65.6606 130.833 66.0636 129.431 67.968C128.947 68.6238 128.493 69.2428 128.243 69.613L128.169 69.7213C128.025 69.9149 127.904 70.1235 127.808 70.3431C127.746 70.5414 128.138 70.501 128.234 70.4894C129.068 70.3292 129.847 69.9703 130.5 69.4456L133.435 66.9635C133.451 66.9504 133.468 66.9382 133.486 66.9272C133.679 66.8206 133.902 66.7726 134.124 66.7894C134.347 66.8062 134.559 66.8869 134.733 67.0213L134.959 67.1833C135.534 67.5996 135.95 67.9005 137.342 68.0505C138.169 68.0992 138.999 68.0451 139.811 67.8896C140.081 67.1898 140.394 66.5065 140.75 65.8433C140.751 65.8374 140.753 65.8316 140.755 65.8259C141.364 64.4928 142.422 63.3963 143.756 62.713C144.312 62.4339 144.934 62.2998 145.56 62.3241C145.995 62.3249 146.422 62.4389 146.795 62.6541C147.168 62.8693 147.474 63.1776 147.681 63.5466C147.864 63.9365 147.935 64.3669 147.885 64.7924C147.836 65.2178 147.668 65.6224 147.399 65.9631C146.267 67.5795 144.727 68.1928 143.245 68.7586C143.173 68.7861 143.067 68.8211 142.938 68.8584L142.851 68.8876C142.723 69.1645 142.61 69.4479 142.513 69.7366C142.404 70.0524 142.346 70.3825 142.341 70.7153C142.339 70.8489 142.366 70.9815 142.42 71.1047C142.474 71.2278 142.554 71.3389 142.654 71.4308C142.891 71.6212 143.191 71.7248 143.5 71.7235C143.725 71.6953 144.113 71.6206 144.511 71.535C147.227 70.7327 149.841 69.6392 152.304 68.275C152.46 68.1843 152.61 68.091 152.76 67.9976L152.741 67.9822C152.717 67.9633 152.693 67.9444 152.671 67.9249C152.658 67.9123 152.645 67.8989 152.633 67.8848C152.478 67.7178 152.367 67.5172 152.309 67.3001C152.3 67.2584 152.298 67.2157 152.303 67.1734C152.417 66.6352 152.716 66.1498 153.152 65.7961C153.645 65.3298 154.194 64.9225 154.788 64.5827C155.375 64.2424 155.989 63.9472 156.624 63.6998C157.125 63.4726 157.675 63.3637 158.229 63.382C158.404 63.3887 158.573 63.4473 158.713 63.5497C158.852 63.6521 158.955 63.7934 159.009 63.9545C159.083 64.1795 159.108 64.4169 159.081 64.6517C159.046 64.9648 158.092 65.9893 157.556 66.5418C157.613 66.5516 157.678 66.5608 157.751 66.5686L158.597 66.6583C159.013 66.6991 159.432 66.7165 159.85 66.7102C160.32 66.7089 160.82 66.6898 161.338 66.6538C161.814 66.6206 162.287 66.5559 162.753 66.4603C162.798 66.4504 162.845 66.4481 162.891 66.4535C163.019 66.4718 163.141 66.5174 163.248 66.5869C163.355 66.6563 163.445 66.748 163.511 66.8552C163.661 67.058 163.73 67.3065 163.704 67.5544C163.698 67.8259 163.597 68.0874 163.416 68.2961C163.236 68.5049 162.988 68.6486 162.712 68.7039C162.45 68.8492 162.111 69.0584 161.703 69.3301C161.256 69.6297 160.835 69.9636 160.444 70.3285C160.053 70.6892 159.688 71.075 159.352 71.4831C159.109 71.7492 158.947 72.0743 158.883 72.423C158.87 72.5131 158.881 72.6049 158.915 72.6896C158.95 72.7743 159.006 72.8489 159.08 72.9063C159.186 73.0003 159.486 73.1708 160.296 73.2574C161.229 73.3551 162.171 73.3478 163.102 73.2357C163.965 73.1337 164.822 72.9901 165.67 72.8054C166.55 72.6253 167.418 72.393 168.268 72.1099C168.327 72.0899 168.391 72.0828 168.453 72.0892C168.463 72.0902 168.475 72.094 168.486 72.094C168.504 72.0658 168.524 72.0621 168.551 72.1082C168.56 72.1102 168.568 72.1126 168.577 72.1154C168.589 72.0774 168.608 72.0413 168.631 72.0081C168.564 71.8827 168.877 71.8447 168.877 71.8505C168.872 71.885 168.894 71.8746 168.93 71.857C168.955 71.8447 168.988 71.8289 169.024 71.8226C169.165 71.7976 169.264 71.7221 169.352 71.6555C169.495 71.5465 169.607 71.4612 169.823 71.66C169.775 71.6301 169.714 71.6247 169.714 71.6909C169.809 71.6637 169.914 71.688 170.013 71.7106C170.14 71.7399 170.255 71.7663 170.317 71.6732L170.273 71.5092C170.384 71.4091 170.52 71.3389 170.668 71.3055C170.668 71.3055 170.602 71.1499 170.637 71.116C170.786 70.9754 171.195 70.7757 171.388 71.1428C171.406 70.9842 171.643 71.0375 171.76 71.0715C171.797 71.082 171.816 71.2107 171.816 71.2107C171.871 71.2182 171.928 71.2129 171.981 71.1952C172.034 71.1775 172.082 71.1479 172.121 71.1088C172.345 71.2737 172.514 71.1816 172.675 71.0932C172.76 71.0466 172.842 71.0012 172.931 70.9947L172.941 71.0355L173.178 70.8932C173.161 70.9483 173.162 70.9457 173.175 70.9234C173.196 70.8885 173.245 70.8051 173.296 70.8202C173.365 70.737 173.504 70.7547 173.615 70.8338L173.779 70.8161C173.675 70.896 173.722 70.958 173.78 71.0347C173.813 71.0792 173.851 71.1288 173.864 71.1897L173.946 71.0402C173.972 71.0755 173.963 71.1093 173.956 71.1377C173.947 71.1685 173.941 71.1929 173.983 71.2056C174.005 71.1666 174.049 71.1388 174.097 71.1085C174.173 71.0613 174.258 71.008 174.28 70.8969C174.261 70.8557 174.233 70.8197 174.196 70.7924C174.189 70.8039 174.189 70.8015 174.193 70.7893L174.184 70.7815L174.193 70.7852C174.202 70.7624 174.208 70.7389 174.211 70.7149C174.195 70.7129 174.182 70.7105 174.16 70.7068C174.205 70.6715 174.213 70.6867 174.211 70.7146C174.317 70.7281 174.304 70.6939 174.286 70.6428C174.282 70.634 174.279 70.6246 174.276 70.6148C174.275 70.6109 174.273 70.6068 174.272 70.6028L174.271 70.5961C174.358 70.706 174.417 70.7248 174.471 70.7419C174.527 70.7599 174.578 70.7761 174.65 70.8933C174.587 70.7701 174.666 70.7592 174.75 70.7476ZM145.722 64.562C145.668 64.56 145.564 64.6004 145.445 64.7505C144.846 65.4996 144.4 66.0874 143.872 66.824C144.688 66.4534 145.379 65.8683 145.866 65.1359C145.975 64.9834 146.127 64.579 145.722 64.562ZM173.445 70.9317C173.445 70.9322 173.463 70.9417 173.508 70.9669L173.51 70.9633C173.511 70.9615 173.511 70.9596 173.512 70.9577C173.488 70.9491 173.468 70.9409 173.456 70.936L173.449 70.9329L173.447 70.9319C173.446 70.9317 173.446 70.9316 173.445 70.9317Z" fill="#286961"/>
<path d="M177.874 70.0544C177.86 70.0279 177.834 70.0128 177.81 69.9999C177.782 69.9839 177.759 69.9713 177.776 69.9444C177.674 70.0082 177.705 70.0666 177.78 70.16L177.874 70.0544Z" fill="#286961"/>
<path d="M177.705 70.3672L177.755 70.321C177.742 70.2965 177.726 70.2894 177.705 70.3672Z" fill="#286961"/>
<path d="M177.805 70.285C177.805 70.334 177.81 70.3231 177.823 70.2933C177.832 70.2743 177.844 70.2478 177.861 70.2242L177.755 70.321C177.759 70.3292 177.763 70.339 177.766 70.3484C177.781 70.3869 177.793 70.4169 177.805 70.285Z" fill="#286961"/>
<path d="M177.951 70.2705L177.942 70.2641L177.936 70.2599L177.932 70.2572C178.131 70.1957 178.186 70.3794 177.987 70.4412C178.068 70.351 178.02 70.3178 177.962 70.2783L177.951 70.2705Z" fill="#286961"/>
<path d="M178.548 70.8694L178.638 70.9373L178.695 70.8395C178.682 70.8618 178.647 70.8523 178.614 70.8435C178.575 70.8331 178.54 70.8236 178.548 70.8688V70.8694Z" fill="#286961"/>
<path d="M177.205 70.2256C177.218 70.2335 177.231 70.241 177.242 70.249L177.173 70.3251C177.144 70.2596 177.121 70.1923 177.102 70.1238C177.12 70.1757 177.165 70.2024 177.205 70.2256Z" fill="#286961"/>
<path d="M177.098 70.1067C177.099 70.1127 177.1 70.1184 177.102 70.1238L177.098 70.1067Z" fill="#286961"/>
<path d="M177.173 70.3251L177.067 70.4382C177.172 70.4361 177.186 70.3869 177.173 70.3251Z" fill="#286961"/>
<path d="M177.891 70.4382L177.726 70.666L177.689 70.6732L177.891 70.4382Z" fill="#286961"/>
<path d="M176.646 70.1598L176.694 70.0195L176.604 70.2338L176.646 70.1598Z" fill="#286961"/>
<path d="M176.32 70.0776C176.343 70.1175 176.369 70.1625 176.352 70.2226C176.248 70.1455 176.175 70.1431 176.115 70.1988L176.116 70.1977C176.166 70.1056 176.222 70.0038 176.3 69.973C176.279 70.0085 176.298 70.0408 176.32 70.0776Z" fill="#286961"/>
<path d="M176.029 70.3353C176.063 70.2933 176.092 70.2478 176.116 70.1995C176.076 70.2376 176.046 70.2841 176.029 70.3353Z" fill="#286961"/>
<path d="M176.819 70.4406L176.748 70.2867H176.749C176.806 70.3206 176.848 70.3743 176.865 70.4368H176.877C176.875 70.4565 176.873 70.4521 176.865 70.4368L176.819 70.4406Z" fill="#286961"/>
<path d="M176.716 70.445H176.821L176.819 70.4406L176.804 70.4407C176.797 70.4408 176.79 70.441 176.783 70.4412C176.767 70.4418 176.753 70.4426 176.742 70.4432C176.731 70.4439 176.723 70.4443 176.718 70.4443L176.716 70.445Z" fill="#286961"/>
<path d="M177.369 70.7639C177.377 70.8045 177.384 70.8442 177.369 70.8923C177.24 70.7952 177.305 70.6997 177.364 70.6141C177.372 70.6028 177.379 70.5917 177.386 70.5808C177.391 70.574 177.395 70.5672 177.399 70.5605C177.349 70.6474 177.359 70.7065 177.369 70.7639Z" fill="#286961"/>
<path d="M177.091 70.6484C177.089 70.6384 177.086 70.6274 177.082 70.6159C177.071 70.5785 177.058 70.5353 177.079 70.499L176.962 70.628L176.913 70.6212L176.907 70.6874L176.961 70.6283L177.091 70.6484Z" fill="#286961"/>
<path d="M176.194 70.5297C176.223 70.5106 176.247 70.4855 176.265 70.4562C176.331 70.442 176.325 70.5123 176.321 70.5647L176.32 70.5741C176.32 70.5783 176.32 70.5824 176.32 70.5863C176.245 70.595 176.169 70.5884 176.098 70.5669C176.132 70.5616 176.165 70.5489 176.194 70.5297Z" fill="#286961"/>
<path d="M175.962 70.5101C176.005 70.5338 176.05 70.5528 176.098 70.5669C176.053 70.5789 176.011 70.5993 175.974 70.627V70.6293C176.069 70.664 176.04 70.7256 176.02 70.768C176.001 70.8085 175.991 70.8314 176.105 70.7964C176.074 70.8287 176.065 70.8665 176.056 70.9024C176.043 70.9572 176.031 71.0076 175.942 71.0266C175.876 70.9181 175.902 70.8443 175.932 70.759C175.947 70.7148 175.964 70.6676 175.969 70.611C175.898 70.6423 175.819 70.6533 175.741 70.6426L175.969 70.5217V70.5465C175.965 70.5517 175.958 70.5566 175.952 70.5614C175.932 70.5765 175.913 70.5906 175.969 70.6086C175.971 70.5879 175.971 70.5672 175.969 70.5465L175.974 70.5427C175.987 70.5526 175.982 70.541 175.969 70.5217V70.5193L175.962 70.5101Z" fill="#286961"/>
<path d="M176.536 70.465L176.526 70.4759C176.534 70.4881 176.541 70.4922 176.536 70.465Z" fill="#286961"/>
<path d="M175.441 70.6535H175.454L175.456 70.6813L175.456 70.6807L175.441 70.6535Z" fill="#286961"/>
<path d="M175.443 70.8082C175.46 70.7678 175.464 70.7236 175.456 70.6807C175.602 70.9391 175.752 71.4159 175.65 71.5422C175.504 71.3989 175.385 71.5551 175.399 71.7045C175.369 71.6832 175.376 71.6447 175.382 71.6089C175.386 71.589 175.389 71.5699 175.386 71.5551L175.258 71.6699C175.218 71.5319 175.269 71.4332 175.314 71.3457C175.356 71.2642 175.393 71.1925 175.347 71.1079C175.375 71.1292 175.394 71.1569 175.411 71.1818C175.448 71.2362 175.475 71.2773 175.579 71.2098C175.638 71.1065 175.535 71.0378 175.449 70.98C175.412 70.9551 175.378 70.9323 175.361 70.9096C175.398 70.884 175.426 70.8487 175.443 70.8082Z" fill="#286961"/>
<path d="M176.444 70.5411C176.406 70.5633 176.364 70.5784 176.32 70.5859C176.32 70.6097 176.32 70.6243 176.336 70.6141C176.395 70.6382 176.421 70.594 176.444 70.5411Z" fill="#286961"/>
<path d="M175.856 70.4345C175.888 70.4634 175.924 70.4889 175.962 70.5101C175.927 70.4633 175.859 70.3913 175.856 70.4345Z" fill="#286961"/>
<path d="M176.508 70.4256L176.501 70.4338C176.508 70.4487 176.516 70.4631 176.526 70.4759C176.503 70.5023 176.475 70.5242 176.444 70.5411C176.457 70.5029 176.477 70.4666 176.501 70.4338C176.49 70.4101 176.486 70.3941 176.508 70.4256Z" fill="#286961"/>
<path d="M175.475 70.5496C175.489 70.5167 175.51 70.487 175.536 70.4623C175.629 70.5679 175.68 70.6216 175.741 70.6392L175.694 70.6647L175.708 70.6399L175.455 70.6532C175.454 70.6177 175.461 70.5824 175.475 70.5496Z" fill="#286961"/>
<path d="M177.289 71.2559C177.282 71.2449 177.278 71.2325 177.277 71.2196C177.264 71.2413 177.26 71.2559 177.289 71.2559Z" fill="#286961"/>
<path d="M177.262 71.0243L177.249 71.048C177.165 71.0145 177.052 70.8907 177.016 70.8293L177.01 70.8109L177.006 70.7971C177.003 70.802 177.007 70.8136 177.016 70.8293C177.057 70.9486 177.111 71.063 177.178 71.1706C177.181 71.1651 177.184 71.1574 177.187 71.1489C177.197 71.1198 177.211 71.0814 177.256 71.0884C177.292 71.1153 177.287 71.1395 177.28 71.167C177.277 71.1827 177.273 71.1995 177.277 71.2185L177.28 71.2126L177.283 71.2075L177.288 71.1997C177.32 71.151 177.368 71.079 177.262 71.0229V71.0243Z" fill="#286961"/>
<path d="M176.508 71.1635L176.385 71.0372L176.574 70.9316C176.573 70.9461 176.574 70.9623 176.575 70.9784C176.578 71.0362 176.582 71.0941 176.49 71.0803L176.508 71.1635Z" fill="#286961"/>
<path d="M175.407 70.4032L175.327 70.6589L175.406 70.5764L175.407 70.4032Z" fill="#286961"/>
<path d="M175.149 70.6318L175.081 70.5819L175.136 70.4827L175.149 70.6318Z" fill="#286961"/>
<path d="M172.289 71.0406C172.227 71.044 172.167 71.068 172.121 71.1085C172.105 71.0993 172.09 71.0889 172.075 71.0776C172.127 70.953 172.21 70.9822 172.289 71.0399C172.361 71.042 172.431 71.0644 172.491 71.1044C172.491 71.2103 172.435 71.1623 172.362 71.0994L172.361 71.0988C172.338 71.0793 172.314 71.0587 172.289 71.0406Z" fill="#286961"/>
<path d="M174.452 71.4016C174.449 71.3738 174.452 71.3456 174.461 71.3191C174.45 71.3452 174.447 71.3738 174.452 71.4016Z" fill="#286961"/>
<path d="M174.184 70.7808C174.16 70.7641 174.134 70.7516 174.106 70.7438C174.129 70.7602 174.156 70.7728 174.184 70.7808Z" fill="#286961"/>
<path d="M174.106 70.7438C174.093 70.7346 174.087 70.7258 174.089 70.7197L174.013 70.7404C174.044 70.7341 174.075 70.7355 174.106 70.7438Z" fill="#286961"/>
<path d="M174.653 70.6593C174.651 70.6489 174.647 70.6375 174.643 70.6262C174.634 70.599 174.625 70.572 174.636 70.5588L174.648 70.5516C174.646 70.552 174.645 70.5525 174.643 70.5532C174.64 70.5545 174.637 70.5564 174.636 70.5588L174.536 70.6168C174.582 70.6024 174.608 70.6239 174.635 70.6452C174.641 70.65 174.647 70.6549 174.653 70.6593Z" fill="#286961"/>
<path d="M175.88 71.5034C175.871 71.5055 175.863 71.5076 175.856 71.5198L175.854 71.5181C175.773 71.4926 175.816 71.4179 175.889 71.4026L175.906 71.4858C175.898 71.4991 175.889 71.5013 175.88 71.5034Z" fill="#286961"/>
<path d="M174.853 71.133C174.882 71.2632 174.935 71.2329 175.001 71.196C175.007 71.1926 175.013 71.189 175.019 71.1856C175.023 71.1834 175.028 71.1813 175.032 71.1792C175.027 71.1814 175.022 71.1822 175.017 71.1815C175.008 70.9659 174.93 71.0498 174.853 71.133Z" fill="#286961"/>
<path d="M175.128 71.1561C175.101 71.1537 175.074 71.1591 175.051 71.1714C175.064 71.1628 175.075 71.1501 175.085 71.1389C175.109 71.1129 175.126 71.0951 175.128 71.1561Z" fill="#286961"/>
<path d="M173.927 70.8715C173.953 70.8903 173.948 70.8278 173.944 70.7781C173.941 70.7381 173.938 70.7065 173.953 70.7322C173.966 70.5329 173.726 71.0063 173.927 70.8715Z" fill="#286961"/>
<path d="M174.998 71.622L174.916 71.5972L174.939 71.4393L174.998 71.622Z" fill="#286961"/>
<path d="M174.319 71.5846L174.46 71.6162C174.458 71.6037 174.459 71.5908 174.463 71.5788C174.468 71.5669 174.476 71.5563 174.486 71.5483C174.463 71.55 174.439 71.5494 174.416 71.5489C174.358 71.5476 174.31 71.5465 174.319 71.586L174.319 71.5846Z" fill="#286961"/>
<path d="M174.486 71.5466C174.516 71.5234 174.551 71.5073 174.588 71.4997C174.577 71.5153 174.562 71.5277 174.544 71.5359C174.526 71.5441 174.506 71.5478 174.486 71.5466Z" fill="#286961"/>
<path d="M174.684 71.6733L174.825 71.7055L174.78 71.6726L174.684 71.6733Z" fill="#286961"/>
<path d="M172.863 71.8758C172.855 71.8869 172.847 71.8983 172.84 71.9106C172.792 71.9459 172.745 71.9147 172.748 71.8468L172.883 71.7683C172.908 71.8117 172.886 71.8422 172.863 71.8758Z" fill="#286961"/>
<path d="M173.357 72.3103L173.41 72.2084C173.376 72.1828 173.361 72.1539 173.343 72.1159C173.337 72.1036 173.33 72.0904 173.322 72.076L173.357 72.3103Z" fill="#286961"/>
<path d="M172.957 72.4173C172.977 72.3859 172.997 72.3531 172.998 72.33C173.092 72.3494 173.064 72.3906 173.034 72.4355C173.019 72.4581 173.003 72.4817 173.002 72.5039C172.883 72.5349 172.918 72.4786 172.957 72.4173Z" fill="#286961"/>
<path d="M169.123 73.397C168.992 73.341 168.978 73.4717 169.083 73.7074C169.179 73.735 169.173 73.6722 169.168 73.6146C169.163 73.5592 169.158 73.5086 169.245 73.5488C169.264 73.4572 169.212 73.4354 169.137 73.403L169.123 73.397Z" fill="#286961"/>
<path d="M119.069 56.9116C118.726 57.1175 118.421 57.3784 118.169 57.6831C117.924 57.9761 117.716 58.296 117.549 58.636C117.383 58.9531 117.291 59.3015 117.28 59.6567C117.269 59.8352 117.299 60.0137 117.367 60.1798C117.436 60.346 117.541 60.4957 117.676 60.6185C117.971 60.8473 118.344 60.9623 118.723 60.9411H118.726C119.123 60.9374 119.509 60.8191 119.836 60.6015C120.162 60.3904 120.453 60.1317 120.698 59.8347C120.942 59.5411 121.149 59.2212 121.317 58.8815C121.483 58.565 121.575 58.2172 121.586 57.8627C121.586 57.0477 121.06 56.5798 120.145 56.5788C119.761 56.5934 119.39 56.7087 119.069 56.9122V56.9116Z" fill="#286961"/>
<path d="M139.957 55.7206H141.859V56.4029H139.16V52.0895H139.957V55.7206Z" fill="#286961"/>
<path d="M129.612 54.1589C129.612 55.5466 130.649 56.5081 132.134 56.5081C132.734 56.5226 133.329 56.4043 133.874 56.1624V53.8567H132.108V54.5104H133.079V55.6412C132.787 55.7513 132.474 55.8047 132.16 55.7981C131.724 55.7844 131.31 55.6088 131.004 55.3079C130.698 55.007 130.525 54.6041 130.52 54.183C130.515 53.762 130.679 53.3553 130.977 53.0477C131.275 52.7401 131.685 52.5554 132.121 52.5319C132.339 52.5279 132.556 52.5658 132.758 52.6436C132.961 52.7213 133.145 52.8372 133.301 52.9846L133.868 52.3941C133.373 52.0101 132.75 51.8114 132.115 51.8344C130.694 51.8344 129.612 52.7325 129.612 54.1589Z" fill="#286961"/>
<path d="M153.297 55.7206H155.579V56.4029H152.501V52.0895H155.465V52.7591H153.297V53.856H155.351V54.5019H153.297V55.7206Z" fill="#286961"/>
<path d="M136.386 56.5126C136.623 56.5267 136.86 56.4929 137.082 56.4133C137.304 56.3337 137.507 56.2101 137.676 56.0505C137.846 55.8908 137.979 55.6987 138.067 55.4864C138.155 55.2741 138.196 55.0464 138.187 54.818V52.0891H137.391V54.7882C137.391 55.2877 137.15 55.8235 136.386 55.8235C135.622 55.8235 135.381 55.2877 135.381 54.7882V52.0891H134.585V54.818C134.576 55.0465 134.617 55.2742 134.705 55.4865C134.792 55.6988 134.926 55.891 135.095 56.0506C135.265 56.2103 135.468 56.3339 135.69 56.4134C135.912 56.493 136.149 56.5268 136.386 56.5126Z" fill="#286961"/>
<path d="M146.112 52.0888H146.908V56.4029H146.112V52.0888Z" fill="#286961"/>
<path d="M145.303 55.7206H143.401V52.0895H142.604V56.4029H145.303V55.7206Z" fill="#286961"/>
<path fill-rule="evenodd" clip-rule="evenodd" d="M157.81 54.5749H157.229L157.229 56.4019H156.433V52.0891H157.988C158.827 52.0891 159.637 52.4118 159.637 53.3263C159.644 53.6075 159.544 53.8815 159.355 54.096C159.166 54.3105 158.902 54.4507 158.613 54.4897L159.808 56.4032H158.847L157.81 54.5749ZM157.949 52.735H157.229V53.9473H157.879C158.328 53.9473 158.84 53.8434 158.84 53.3201C158.84 52.8505 158.36 52.735 157.949 52.735Z" fill="#286961"/>
<path d="M161.735 56.323H162.274V53.8597H163.201V53.406H160.808V53.8597H161.735V56.323Z" fill="#286961"/>
<path d="M170.235 55.8676C170.35 55.9231 170.476 55.9533 170.604 55.9559H170.606C170.857 55.9559 171.153 55.8367 171.153 55.524C171.153 55.2277 170.851 55.1364 170.483 55.0249L170.455 55.0166C170.088 54.9059 169.691 54.7324 169.691 54.1891C169.691 53.5958 170.251 53.3323 170.798 53.3323C171.121 53.3294 171.435 53.4409 171.678 53.6457L171.326 54.0159C171.258 53.9382 171.173 53.8756 171.077 53.8323C170.981 53.789 170.877 53.766 170.771 53.7649C170.523 53.7649 170.237 53.8804 170.237 54.1646C170.237 54.4325 170.472 54.5113 170.814 54.6132C171.203 54.7287 171.699 54.8937 171.699 55.4662C171.699 56.0914 171.19 56.397 170.596 56.397C170.402 56.402 170.21 56.3675 170.031 56.2959C169.852 56.2242 169.691 56.1171 169.558 55.9814L169.942 55.635C170.02 55.7326 170.121 55.8121 170.235 55.8676Z" fill="#286961"/>
<path d="M150.074 56.4029L151.869 52.0888H151.009L149.764 55.4099H149.738L148.506 52.0888H147.615L149.385 56.4029H150.074Z" fill="#286961"/>
<path d="M168.352 56.323H167.814V55.0581L166.678 53.4064H167.336L168.096 54.634L168.865 53.4064H169.489L168.352 55.0581V56.323Z" fill="#286961"/>
<path fill-rule="evenodd" clip-rule="evenodd" d="M165.008 56.3975C165.222 56.408 165.436 56.3756 165.637 56.3023C165.838 56.2291 166.02 56.1165 166.174 55.9717C166.327 55.8269 166.448 55.653 166.528 55.4611C166.608 55.2691 166.646 55.0632 166.639 54.8564C166.629 54.4476 166.453 54.0591 166.149 53.7737C165.845 53.4883 165.438 53.3285 165.014 53.3285C164.589 53.3285 164.182 53.4883 163.878 53.7737C163.575 54.0591 163.399 54.4476 163.388 54.8564C163.381 55.0624 163.418 55.2675 163.497 55.4589C163.577 55.6503 163.696 55.8238 163.848 55.9685C164.001 56.1133 164.182 56.2261 164.382 56.2999C164.581 56.3737 164.794 56.4069 165.008 56.3975ZM165.012 53.7901C165.235 53.7755 165.458 53.826 165.651 53.9351C165.844 54.0441 165.998 54.2067 166.094 54.4015C166.189 54.5964 166.222 54.8145 166.187 55.0275C166.153 55.2405 166.052 55.4385 165.899 55.5957C165.746 55.7529 165.548 55.862 165.329 55.9088C165.111 55.9557 164.883 55.9381 164.675 55.8583C164.468 55.7785 164.29 55.6403 164.164 55.4616C164.039 55.2829 163.973 55.072 163.974 54.8564C163.964 54.7195 163.984 54.5822 164.032 54.453C164.08 54.3238 164.155 54.2055 164.252 54.1055C164.35 54.0054 164.467 53.9258 164.598 53.8715C164.729 53.8173 164.87 53.7896 165.012 53.7901Z" fill="#286961"/>
<path d="M72.0377 62.8264L72.0327 62.8332L71.8492 63.0845C70.1717 65.4045 68.6359 67.4746 66.8158 69.3186C65.4709 70.6823 62.9409 72.5857 60.0478 74.4103C58.4327 75.284 56.8183 76.0675 55.248 76.7395C53.7699 77.3861 52.2181 77.8631 50.6246 78.1607C49.867 78.2984 49.0981 78.3695 48.3272 78.3732C46.4969 78.4096 44.7025 77.8812 43.2057 76.8651C41.2182 75.4908 39.9526 73.4452 39.4443 70.7866C39.0628 68.5817 39.245 66.3203 39.9751 64.1987C40.7749 61.7798 41.9032 59.4736 43.3307 57.3401C44.8906 54.9912 46.6762 52.7889 48.6639 50.7624C49.6957 49.7022 50.8063 48.6471 51.9649 47.626C51.9842 47.5993 52.007 47.5752 52.0326 47.554L52.195 47.4236C52.7216 46.9628 53.2098 46.5495 53.6868 46.161C53.7405 46.1169 53.8044 46.086 53.8731 46.0707C54.8048 45.3423 55.6059 44.7483 56.3925 44.203C58.8415 42.4997 61.4234 40.9813 64.115 39.6614C66.5633 38.4431 69.1389 37.4791 71.7985 36.7854C72.4156 36.6299 73.1117 36.471 73.8673 36.3124C74.5953 36.1564 75.3342 36.0527 76.0781 36.002C76.7386 35.946 77.4043 36.0085 78.0412 36.1864C78.3498 36.2657 78.6306 36.4233 78.8545 36.6428C79.0785 36.8623 79.2372 37.1356 79.3143 37.4344C79.3949 37.7079 79.4185 37.9941 79.3839 38.2765C79.3493 38.5589 79.257 38.8318 79.1124 39.0797C78.8483 39.5338 78.5177 39.9489 78.1307 40.312C77.6524 40.7508 77.1154 41.126 76.5339 41.4276C76.502 41.4444 76.468 41.4573 76.4328 41.4659C76.342 41.5018 76.2444 41.5186 76.1463 41.5151C76.0483 41.5117 75.9522 41.488 75.8644 41.4458C75.7766 41.4036 75.6992 41.3437 75.6374 41.2703C75.5756 41.1969 75.5308 41.1116 75.506 41.0201C75.4742 40.8621 75.4791 40.6992 75.5206 40.5433C75.562 40.3874 75.6388 40.2423 75.7455 40.1185C75.9225 39.878 76.128 39.6583 76.3578 39.4637C76.3912 39.4293 76.4208 39.3917 76.4462 39.3513C76.2366 39.3303 76.0266 39.317 75.822 39.312C74.7457 39.3741 73.6736 39.4898 72.6097 39.6587C71.5639 39.8291 70.5437 40.039 69.5782 40.2818C67.1814 40.899 64.8548 41.7459 62.6331 42.81C60.2905 43.9208 58.0535 45.2275 55.9479 46.7152C55.2244 47.2266 54.4631 47.8077 53.6195 48.4906C52.5373 49.4434 51.4887 50.4581 50.5045 51.5064C48.8959 53.2115 47.4753 55.0728 46.2654 57.0606C45.1236 58.9361 44.2552 60.9544 43.6847 63.0584C43.144 65.0048 43.0533 67.0419 43.4191 69.0259C43.598 70.0925 44.019 71.1079 44.652 71.9996C45.2274 72.7868 45.98 73.4383 46.8537 73.9053C47.7495 74.3775 48.7349 74.6706 49.751 74.7672C50.8899 74.8708 52.0383 74.8175 53.1615 74.6089C54.8153 74.3341 56.4205 73.8361 57.9301 73.1294C62.5045 70.9448 66.5086 66.968 68.1533 64.9624C69.2916 63.6012 70.3441 62.1754 71.305 60.6925L71.2345 60.7111C70.3335 60.9617 69.3917 61.1889 68.4809 61.4086L68.4126 61.4253C67.9976 61.5255 67.5686 61.6294 67.1392 61.736C65.6907 62.0943 63.9583 62.4794 61.9856 62.8804C60.1026 63.279 58.1987 63.5797 56.2822 63.781C54.6689 63.9321 53.6808 64.017 53.2616 64.0397H53.1999C51.9952 64.0397 51.1452 63.8448 50.602 63.4431C50.0733 63.0702 49.7056 62.5225 49.5692 61.9048C49.5384 61.7942 49.5311 61.6788 49.5479 61.5654C49.5646 61.4521 49.6051 61.3432 49.6668 61.2453C49.7275 61.1585 49.8059 61.0844 49.8973 61.0276C49.9886 60.9708 50.0909 60.9325 50.198 60.9149C50.2986 60.8943 50.4014 60.8862 50.5041 60.8908C50.5809 60.8932 50.6778 60.9006 50.7835 60.9132C51.4465 60.9617 52.112 60.9701 52.7762 60.9383C52.9652 60.9316 53.2298 60.9299 53.5365 60.9279L53.5459 60.9278C55.3473 60.9303 57.1476 60.8396 58.9389 60.6561C59.8171 60.5634 60.6872 60.3875 61.6083 60.2011L61.6548 60.1916C61.9324 60.1349 62.2195 60.0768 62.5045 60.0218C65.2828 59.4456 68.0168 58.6861 70.6871 57.7486C71.1412 57.5955 71.5107 57.4732 71.7752 57.3917C72.8929 57.0487 73.6359 57.1078 74.0473 57.5737C74.6493 58.2543 74.1406 59.4224 73.8941 59.8931C73.6919 60.248 73.1945 61.1159 72.9391 61.5255C72.6587 61.9724 72.3431 62.4067 72.0377 62.8264Z" fill="#286961"/>
</svg>
