<svg width="218" height="110" viewBox="0 0 218 110" fill="none" xmlns="http://www.w3.org/2000/svg">
<rect width="217.25" height="110" rx="8" fill="#F4F4F4"/>
<path d="M100.044 51.9828C100.044 51.3457 99.802 50.7575 99.3188 50.3164C98.7872 49.8263 98.2557 49.6303 97.5308 49.6303C96.1294 49.6303 95.163 50.4635 95.018 51.9338C94.7764 53.9923 94.7764 54.9725 94.7764 57.3741L94.8247 60.8049C94.8247 60.8049 94.9213 62.4713 94.9213 63.3535C93.7616 64.5788 92.2152 65.6081 90.6206 65.51C89.6058 65.461 88.1561 64.6278 88.1078 61.6871L88.2044 57.129L88.446 54.0903L88.6876 52.0808C88.6876 51.3947 88.446 50.8065 87.9628 50.3164C87.4312 49.8753 86.803 49.6303 86.1265 49.6303C84.7735 49.6303 83.9036 50.4144 83.662 51.8358C83.2754 54.1393 83.2754 55.9038 83.2754 57.4231C83.2754 59.8247 83.1305 61.8342 83.6137 65.0689C83.8553 66.7844 84.6768 67.9606 85.9332 69.1369C87.0447 69.8721 88.0594 70.5583 90.4273 70.5583C92.2152 70.5583 94.0999 69.627 95.3079 68.5488C95.5012 69.7741 95.8878 70.5092 97.4342 70.5583C98.1107 70.5583 98.7389 70.3132 99.2221 69.8721C99.7537 69.333 99.9953 68.7448 99.9953 68.0587L99.947 67.1764L99.8986 66.3923L99.8503 65.6571L99.7537 61.8342L99.802 58.0603L100.092 52.2769C100.044 52.1299 100.044 52.0318 100.044 51.9828Z" fill="#909092"/>
<path d="M172.625 49.8753C172.19 49.4342 171.514 49.1891 170.982 49.1891C170.499 49.1401 170.209 49.1401 169.726 49.2382C168.469 49.4832 166.826 50.0223 165.183 51.7378C164.749 49.8753 163.637 49.5322 162.816 49.5322C161.946 49.5322 160.399 49.7773 160.399 51.9828V67.9606C160.399 69.578 161.269 70.5582 162.767 70.5582C164.41 70.5582 165.328 69.627 165.328 67.9606C165.328 67.9606 165.28 59.7757 165.28 58.7464C165.232 57.031 166.923 55.2666 168.518 54.8255C169.243 54.6294 169.629 54.5314 170.306 54.4824C170.354 54.4824 170.837 54.4334 170.886 54.4334C171.562 54.3844 172.094 54.2864 172.674 53.7472C173.205 53.2571 173.447 52.5219 173.447 51.7378C173.35 50.9536 173.205 50.4144 172.625 49.8753Z" fill="#909092"/>
<path d="M104.248 40.073C102.653 40.073 101.735 41.0042 101.783 42.6216L101.88 47.9148V48.748L101.977 55.1686V61.4421L101.928 67.9116C101.977 69.529 102.943 70.4602 104.538 70.4602C105.987 70.4602 106.857 69.578 107.002 68.0096C107.002 67.9606 107.051 63.8437 107.051 63.8437V55.1196L106.954 49.4832L106.906 42.5236C106.857 41.0042 105.891 40.073 104.248 40.073Z" fill="#909092"/>
<path d="M111.786 40.073C110.192 40.073 109.273 41.0042 109.322 42.6216L109.418 48.0619L109.467 55.1686V61.4911L109.418 67.9116C109.467 69.529 110.433 70.4602 112.028 70.4602C113.478 70.4602 114.347 69.578 114.492 68.0096C114.492 67.9606 114.541 63.8437 114.541 63.8437V55.1196L114.444 49.7773V48.699L114.347 42.5236C114.347 41.0042 113.381 40.073 111.786 40.073Z" fill="#909092"/>
<path d="M80.8593 53.6492C80.3277 53.1591 79.6512 52.914 78.8297 52.914C72.0161 52.914 65.9274 52.0318 63.173 53.6492C62.0615 54.3354 61.9166 55.2176 61.9649 55.9038C62.0132 56.5409 62.3031 57.3251 62.7864 57.8642C63.4629 58.5014 64.1394 58.8445 64.9126 58.8445L66.0724 58.5504C68.1503 57.6192 72.741 58.2073 75.5437 57.9622C75.6404 59.4326 76.1236 61.197 72.9343 63.8437C71.4846 65.0689 69.2134 65.461 67.1355 65.363C61.53 65.0689 59.7903 60.8049 59.3071 58.8445C58.4373 55.0215 58.5823 52.3259 61.0467 48.65C62.3515 46.7386 65.2025 44.9251 68.7301 45.2192C72.2577 45.4643 73.2242 47.5228 75.1571 48.552C75.8337 48.9441 76.3169 49.1401 76.7518 49.1401C77.4767 49.1401 78.1049 48.65 78.6364 48.1109C79.1197 47.6698 79.3613 47.0326 79.2646 46.2975C79.2646 44.8271 77.7666 42.8666 75.8337 41.8864C73.8524 40.8572 71.7745 39.9259 68.6818 39.8769C66.6522 39.8279 62.6897 40.7101 59.742 42.8666C57.2775 44.7291 55.7795 46.5915 54.5714 50.0224C53.46 53.1101 53.4117 56.2468 53.9915 59.3836C54.7647 63.5496 57.1809 66.2942 59.2105 67.9606C61.24 69.578 64.2844 70.6073 67.667 70.6073C71.2913 70.6073 74.6256 69.48 77.1384 67.1764C80.3277 64.2357 81.0043 61.3441 80.9076 57.5702C81.5841 57.08 81.9707 56.4429 81.8741 55.5117C81.7774 54.8255 81.4392 54.1883 80.8593 53.6492Z" fill="#909092"/>
<path d="M149.382 54.2864C150.01 54.1883 150.735 54.1393 151.411 54.2373C152.088 54.3354 153.248 54.8745 153.827 55.3646C152.764 55.9037 151.073 56.4919 149.623 57.08C148.125 57.6682 147.014 58.0603 145.419 58.8444C145.757 57.2271 146.289 56.4429 146.966 55.7077C147.642 54.9235 148.754 54.3844 149.382 54.2864ZM158.273 63.4515C157.838 63.0104 157.307 62.7654 156.63 62.7654C155.905 62.7654 155.277 63.3535 154.697 64.2357C154.504 64.5298 153.827 65.265 152.329 65.6571C148.464 66.6863 146.821 64.9709 146.821 64.9709C146.192 64.6768 145.854 63.9907 145.516 63.2555C146.869 62.7654 149.285 61.8832 151.798 60.8539C154.311 59.8737 156.534 58.9915 157.21 58.5504C158.466 57.7662 158.95 56.7369 158.901 55.6097C158.805 53.5512 157.113 51.6887 155.325 50.8065C153.972 50.0713 152.233 49.6793 150.107 49.6793C147.4 49.7283 144.404 51.4927 142.858 53.4041C141.312 55.3156 140.442 58.3053 140.442 61.5401C140.442 64.4808 141.602 67.1274 143.486 68.4507C145.516 69.8721 147.497 70.5092 149.768 70.6073C151.943 70.7053 153.586 70.1661 155.422 69.3329C157.887 68.2547 159.143 66.7843 159.143 65.167C159.046 64.4318 158.805 63.8926 158.273 63.4515Z" fill="#909092"/>
<path d="M140.539 50.2674C140.007 49.7773 139.427 49.5322 138.751 49.5322C137.784 49.5322 136.963 50.1204 136.479 51.1006C136.431 51.1496 134.933 55.0215 134.933 55.0215C133.918 57.6192 132.614 59.9717 131.84 61.6871C130.874 59.1385 127.878 51.1006 127.878 51.1006C127.443 50.0714 126.67 49.5322 125.607 49.5322C124.93 49.5322 124.302 49.7773 123.77 50.2184C123.239 50.7085 122.901 51.2966 122.949 52.0318C122.997 52.767 123.48 53.8943 123.48 53.8943L126.38 61.148L129.183 68.3037C129.859 69.9701 131.019 70.3622 131.84 70.3622C133.193 70.3622 134.063 69.578 134.208 68.2547C134.257 68.1567 138.364 59.7267 138.364 59.7267C140.539 55.0215 141.408 52.2279 141.408 52.0318C141.36 51.3457 141.07 50.7085 140.539 50.2674Z" fill="#909092"/>
<path d="M121.403 42.6706C120.871 42.1314 120.194 41.8864 119.373 41.8864C118.551 41.8864 117.875 42.1805 117.343 42.7196C116.812 43.2097 116.522 43.8959 116.57 44.68C116.57 45.4642 116.908 46.1994 117.537 46.7385C118.117 47.2777 118.841 47.5227 119.566 47.5227C120.291 47.5227 120.968 47.2777 121.547 46.7385C122.079 46.1994 122.417 45.5132 122.369 44.68C122.321 43.8959 121.982 43.1607 121.403 42.6706Z" fill="#909092"/>
<path d="M121.789 52.1789C121.741 51.1986 121.306 50.6105 120.968 50.3164C120.533 49.8753 119.904 49.6303 119.18 49.6303C118.455 49.6303 117.827 49.8753 117.343 50.3654C116.908 50.8065 116.667 51.4437 116.715 52.1789C116.715 52.1789 116.619 54.1883 116.667 57.129C116.715 60.5599 116.86 67.9606 116.86 67.9606C116.86 68.6958 117.15 69.2839 117.633 69.7741C118.165 70.2642 118.793 70.4602 119.47 70.4602C120.194 70.4602 120.774 70.2152 121.258 69.7741C121.741 69.1859 121.934 68.5978 121.934 67.9116C121.934 67.9116 121.692 60.3638 121.692 56.835C121.692 53.7962 121.789 52.1789 121.789 52.1789Z" fill="#909092"/>
</svg>
