<svg width="60" height="60" viewBox="0 0 60 60" fill="none" xmlns="http://www.w3.org/2000/svg">
<circle cx="30" cy="30" r="29.4" stroke="#525665" stroke-width="1.2"/>
<path d="M30.0773 21C27.4241 21 25.2733 23.0265 25.2733 25.5262C25.2733 28.026 27.4241 30.0526 30.0773 30.0526C32.7305 30.0526 34.8813 28.026 34.8813 25.5262C34.8813 23.0265 32.7305 21 30.0773 21ZM30.0773 27.3974C28.9806 27.3974 28.0915 26.5596 28.0915 25.5263C28.0915 24.4929 28.9806 23.6552 30.0773 23.6552C31.1741 23.6552 32.0632 24.4929 32.0632 25.5263C32.0632 26.5596 31.1741 27.3974 30.0773 27.3974ZM31.7733 33.7376L34.6764 36.4484C35.1869 36.9286 35.1875 37.7078 34.6778 38.1888C34.1681 38.6698 33.3412 38.6705 32.8305 38.1902L30.0121 35.6043L27.4523 38.1735C27.196 38.424 26.8541 38.55 26.5119 38.55C26.1855 38.55 25.8588 38.4355 25.6053 38.2053C25.086 37.7335 25.0709 36.9544 25.5717 36.4651L28.3272 33.7519C26.3501 33.3914 25.15 32.511 25.0882 32.4643C24.5254 32.039 24.435 31.2645 24.8864 30.7342C25.3376 30.2039 26.1596 30.1188 26.7226 30.5439C26.7344 30.553 27.9896 31.4414 30.0121 31.4427C32.0346 31.4414 33.2638 30.553 33.2757 30.5439C33.8386 30.1188 34.6606 30.2039 35.1119 30.7342C35.5632 31.2645 35.4728 32.039 34.91 32.4643C34.8491 32.5103 33.6966 33.3684 31.7733 33.7376Z" fill="#525665"/>
</svg>
