<svg width="60" height="60" viewBox="0 0 60 60" fill="none" xmlns="http://www.w3.org/2000/svg">
<circle cx="30" cy="30" r="29.4" stroke="#525665" stroke-width="1.2"/>
<g clip-path="url(#clip0_416_15754)">
<path d="M30.0007 38.9993C34.9709 38.9993 39 34.9701 39 30C39 25.0298 34.9709 21.0007 30.0007 21.0007C25.0306 21.0007 21.0015 25.0298 21.0015 30C21.0015 34.9701 25.0306 38.9993 30.0007 38.9993Z" fill="white"/>
<path d="M30 21C25.0296 21 21 25.0296 21 30C21 33.8126 23.3719 37.0726 26.72 38.3837C26.6415 37.6719 26.5704 36.5763 26.7511 35.7993C26.9148 35.097 27.8067 31.3259 27.8067 31.3259C27.8067 31.3259 27.5378 30.7867 27.5378 29.9896C27.5378 28.7385 28.263 27.8037 29.1659 27.8037C29.9341 27.8037 30.3044 28.38 30.3044 29.0711C30.3044 29.843 29.8126 30.9978 29.5593 32.0674C29.3474 32.963 30.0081 33.6941 30.8919 33.6941C32.4919 33.6941 33.7207 32.0074 33.7207 29.5726C33.7207 27.4178 32.1726 25.9111 29.9615 25.9111C27.4007 25.9111 25.8978 27.8319 25.8978 29.817C25.8978 30.5904 26.1956 31.42 26.5674 31.8711C26.6407 31.96 26.6519 32.0385 26.6296 32.1289C26.5615 32.4133 26.4096 33.0244 26.38 33.1496C26.3407 33.3141 26.2496 33.3496 26.0793 33.2704C24.9548 32.7474 24.2526 31.1037 24.2526 29.7837C24.2526 26.9444 26.3156 24.3378 30.1993 24.3378C33.3215 24.3378 35.7474 26.5622 35.7474 29.5356C35.7474 32.637 33.7919 35.1333 31.077 35.1333C30.1652 35.1333 29.3074 34.6593 29.0141 34.1C29.0141 34.1 28.563 35.8185 28.4533 36.2393C28.2504 37.0207 27.7015 38.0007 27.3348 38.5985C28.177 38.8593 29.0719 39 29.9993 39C34.9696 39 38.9993 34.9704 38.9993 30C39 25.0296 34.9704 21 30 21Z" fill="#525665"/>
</g>
<defs>
<clipPath id="clip0_416_15754">
<rect width="18" height="18" fill="white" transform="translate(21 21)"/>
</clipPath>
</defs>
</svg>
