<svg width="40" height="41" viewBox="0 0 40 41" fill="none" xmlns="http://www.w3.org/2000/svg">
<circle cx="20" cy="20.3418" r="19.5" stroke="#525665"/>
<path fill-rule="evenodd" clip-rule="evenodd" d="M27.6329 16.9512C27.7441 16.6 27.6329 16.3418 27.1035 16.3418H25.3531C24.908 16.3418 24.7028 16.5648 24.5916 16.8106C24.5916 16.8106 23.7015 18.8657 22.4404 20.2005C22.0325 20.587 21.847 20.7099 21.6245 20.7099C21.5132 20.7099 21.3522 20.587 21.3522 20.2357V16.9512C21.3522 16.5296 21.223 16.3418 20.8521 16.3418H18.1014C17.8232 16.3418 17.6559 16.5374 17.6559 16.7229C17.6559 17.1224 18.2865 17.2147 18.3515 18.3387V20.7802C18.3515 21.3155 18.2495 21.4126 18.0269 21.4126C17.4335 21.4126 15.9901 19.3483 15.134 16.9864C14.9662 16.5272 14.7979 16.3418 14.3505 16.3418H12.6001C12.1 16.3418 12 16.5648 12 16.8106C12 17.2497 12.5934 19.4277 14.763 22.3083C16.2095 24.2754 18.2475 25.3418 20.1019 25.3418C21.2145 25.3418 21.3522 25.105 21.3522 24.697V23.2102C21.3522 22.7365 21.4576 22.642 21.8099 22.642C22.0695 22.642 22.5146 22.765 23.5531 23.7134C24.74 24.8376 24.9356 25.3418 25.6032 25.3418H27.3536C27.8537 25.3418 28.1038 25.105 27.9595 24.6375C27.8017 24.1717 27.2349 23.4958 26.4831 22.6947C26.0752 22.238 25.4631 21.7463 25.2777 21.5003C25.018 21.1842 25.0923 21.0436 25.2777 20.7626C25.2777 20.7626 27.4103 17.9173 27.6329 16.9512Z" fill="#525665"/>
</svg>
