<svg width="60" height="60" viewBox="0 0 60 60" fill="none" xmlns="http://www.w3.org/2000/svg">
<circle cx="30" cy="30" r="29.4" stroke="#525665" stroke-width="1.2"/>
<path fill-rule="evenodd" clip-rule="evenodd" d="M38.5885 25.3062C38.7135 24.8995 38.5885 24.6006 37.9929 24.6006H36.0237C35.523 24.6006 35.2922 24.8588 35.167 25.1434C35.167 25.1434 34.1656 27.523 32.747 29.0686C32.288 29.516 32.0794 29.6584 31.829 29.6584C31.7038 29.6584 31.5227 29.516 31.5227 29.1093V25.3062C31.5227 24.8181 31.3774 24.6006 30.96 24.6006H27.8656C27.5526 24.6006 27.3644 24.8271 27.3644 25.0418C27.3644 25.5045 28.0737 25.6113 28.1469 26.9128V29.7398C28.1469 30.3596 28.0321 30.472 27.7817 30.472C27.1142 30.472 25.4903 28.0818 24.5272 25.3469C24.3384 24.8153 24.1491 24.6006 23.6458 24.6006H21.6766C21.114 24.6006 21.0015 24.8588 21.0015 25.1434C21.0015 25.6519 21.669 28.1738 24.1099 31.5092C25.7371 33.7869 28.0299 35.0216 30.1161 35.0216C31.3678 35.0216 31.5227 34.7474 31.5227 34.275V32.5535C31.5227 32.005 31.6412 31.8956 32.0376 31.8956C32.3296 31.8956 32.8304 32.0379 33.9987 33.1361C35.3339 34.4378 35.5541 35.0216 36.305 35.0216H38.2742C38.8369 35.0216 39.1182 34.7474 38.9559 34.2062C38.7784 33.6668 38.1408 32.8842 37.295 31.9566C36.836 31.4277 36.1475 30.8584 35.9389 30.5736C35.6468 30.2075 35.7303 30.0448 35.9389 29.7194C35.9389 29.7194 38.3381 26.4248 38.5885 25.3062Z" fill="#525665"/>
</svg>
